<svg xmlns="http://www.w3.org/2000/svg" xmlns:xlink="http://www.w3.org/1999/xlink" width="386" height="386"><defs><circle id="circle" r="12.4" stroke="#000" stroke-width="1.5"/><marker id="marker-w" markerHeight="28" markerUnits="userSpaceOnUse" markerWidth="28" refX="14" refY="14"><use x="14" y="14" fill="#fff" xlink:href="#circle"/></marker><marker id="marker-r" markerHeight="28" markerUnits="userSpaceOnUse" markerWidth="28" refX="14" refY="14"><use x="14" y="14" fill="red" xlink:href="#circle"/></marker><marker id="marker-g" markerHeight="28" markerUnits="userSpaceOnUse" markerWidth="28" refX="14" refY="14"><use x="14" y="14" fill="green" xlink:href="#circle"/></marker><marker id="marker-b" markerHeight="28" markerUnits="userSpaceOnUse" markerWidth="28" refX="14" refY="14"><use x="14" y="14" fill="#00f" xlink:href="#circle"/></marker><marker id="marker-y" markerHeight="28" markerUnits="userSpaceOnUse" markerWidth="28" refX="14" refY="14"><use x="14" y="14" fill="#ff0" xlink:href="#circle"/></marker><path id="arrow" fill="#000" stroke="#000" stroke-miterlimit="8" stroke-width="1.3" d="M0 0 h30 l-5 -5 l20 5 l-20 5 l5 -5 z"/></defs><rect id="bg" width="384" height="384" x="1" y="1" fill="none" stroke="#000" stroke-width="2"/><path id="line" fill="none" stroke="#000" stroke-width="2" marker-end="url(#marker-w)" marker-mid="url(#marker-w)" d="M25 159.4	h 33.6 h 33.6 h 33.6 h 33.6	v-33.6 v-33.6 v-33.6 v-33.6	h 33.6 h 33.6	v 33.6 v 33.6 v 33.6 v 33.6	h 33.6 h 33.6 h 33.6 h 33.6	v 33.6 v 33.6	h-33.6 h-33.6 h-33.6 h-33.6	v 33.6 v 33.6 v 33.6 v 33.6	h-33.6 h-33.6	v-33.6 v-33.6 v-33.6 v-33.6	h-33.6 h-33.6 h-33.6 h-33.6	v-33.6 z"/><use id="rs" x="25" y="159.4" fill="#ffa07a" xlink:href="#circle"/><use id="gs" x="361" y="226.6" fill="#90ee90" xlink:href="#circle"/><use id="bs" x="226.6" y="25" fill="#6495ed" xlink:href="#circle"/><use id="ys" x="159.4" y="361" fill="#fffacd" xlink:href="#circle"/><use x="20" y="134.4" xlink:href="#arrow"/><use x="366" y="251.6" transform="rotate(180, 366 251.6)" xlink:href="#arrow"/><use x="251.6" y="20" transform="rotate(90, 251.6 20)" xlink:href="#arrow"/><use x="134.4" y="366" transform="rotate(270, 134.4 366)" xlink:href="#arrow"/><g fill="none" stroke="none"><path marker-end="url(#marker-r)" marker-mid="url(#marker-r)" d="M193 193 h-33.6 h-33.6 h-33.6 h-33.6"/><path marker-end="url(#marker-r)" marker-mid="url(#marker-r)" marker-start="url(#marker-r)" d="M25 25 h33.6 v33.6 h-33.6"/><path marker-end="url(#marker-g)" marker-mid="url(#marker-g)" d="M193 193 h33.6 h33.6 h33.6 h33.6"/><path marker-end="url(#marker-g)" marker-mid="url(#marker-g)" marker-start="url(#marker-g)" d="M361 361 h-33.6 v-33.6 h33.6"/><path marker-end="url(#marker-b)" marker-mid="url(#marker-b)" d="M193 193 v-33.6 v-33.6 v-33.6 v-33.6"/><path marker-end="url(#marker-b)" marker-mid="url(#marker-b)" marker-start="url(#marker-b)" d="M361 25 h-33.6 v33.6 h33.6"/><path marker-end="url(#marker-y)" marker-mid="url(#marker-y)" d="M193 193 v33.6 v33.6 v33.6 v33.6"/><path marker-end="url(#marker-y)" marker-mid="url(#marker-y)" marker-start="url(#marker-y)" d="M25 361 h33.6 v-33.6 h-33.6"/></g></svg>